<svg width="320" height="360" viewBox="0 0 320 360" fill="none" xmlns="http://www.w3.org/2000/svg">
  <path d="M160 16L286 64V154C286 240 234 314 160 344C86 314 34 240 34 154V64L160 16Z" fill="#F7F5EF"/>
  <path d="M160 47L256 84V156C256 222 218 278 160 307C102 278 64 222 64 156V84L160 47Z" fill="#101820"/>
  <path d="M160 81L226 106V158C226 205 201 245 160 269C119 245 94 205 94 158V106L160 81Z" fill="#CF3F2E"/>
  <path d="M160 117L196 132V162C196 188 182 211 160 226C138 211 124 188 124 162V132L160 117Z" fill="#D6A642"/>
  <path d="M160 142L176 149V164C176 176 170 188 160 196C150 188 144 176 144 164V149L160 142Z" fill="#F7F5EF"/>
</svg>
